<mxfile host="app.diagrams.net" modified="2022-06-09T10:03:58.053Z" agent="5.0 (X11; Linux x86_64) AppleWebKit/537.36 (KHTML, like Gecko) Chrome/102.0.5005.61 Safari/537.36" etag="evECtDatK-Rp8ihkkK4J" version="19.0.2" type="github">
  <diagram id="HVR5KoIifLdd6Xq3uzye" name="Page-1">
    <mxGraphModel dx="1422" dy="800" grid="1" gridSize="10" guides="1" tooltips="1" connect="1" arrows="1" fold="1" page="1" pageScale="1" pageWidth="827" pageHeight="1169" math="0" shadow="0">
      <root>
        <mxCell id="0" />
        <mxCell id="1" parent="0" />
        <mxCell id="dA5qExf6YDdf3Fpp9Gv9-1" value="" style="rounded=1;whiteSpace=wrap;html=1;sketch=1;arcSize=18;" parent="1" vertex="1">
          <mxGeometry x="160" y="240" width="520" height="500" as="geometry" />
        </mxCell>
        <mxCell id="dA5qExf6YDdf3Fpp9Gv9-2" value="Application" style="text;html=1;strokeColor=none;fillColor=none;align=center;verticalAlign=middle;whiteSpace=wrap;rounded=0;sketch=1;" parent="1" vertex="1">
          <mxGeometry x="390" y="220" width="60" height="30" as="geometry" />
        </mxCell>
        <mxCell id="dA5qExf6YDdf3Fpp9Gv9-3" value="Usager" style="shape=umlActor;verticalLabelPosition=bottom;verticalAlign=top;html=1;outlineConnect=0;sketch=1;" parent="1" vertex="1">
          <mxGeometry x="50" y="340" width="50" height="100" as="geometry" />
        </mxCell>
        <mxCell id="dA5qExf6YDdf3Fpp9Gv9-6" value="" style="endArrow=none;html=1;rounded=0;sketch=1;exitX=1;exitY=0.3333333333333333;exitDx=0;exitDy=0;exitPerimeter=0;entryX=0;entryY=0.5;entryDx=0;entryDy=0;" parent="1" source="dA5qExf6YDdf3Fpp9Gv9-3" target="dA5qExf6YDdf3Fpp9Gv9-7" edge="1">
          <mxGeometry width="50" height="50" relative="1" as="geometry">
            <mxPoint x="390" y="590" as="sourcePoint" />
            <mxPoint x="230" y="350" as="targetPoint" />
          </mxGeometry>
        </mxCell>
        <mxCell id="dA5qExf6YDdf3Fpp9Gv9-7" value="Consulter profil" style="ellipse;whiteSpace=wrap;html=1;sketch=1;" parent="1" vertex="1">
          <mxGeometry x="210" y="370" width="140" height="70" as="geometry" />
        </mxCell>
        <mxCell id="dA5qExf6YDdf3Fpp9Gv9-8" value="&amp;lt;&amp;lt;inclus&amp;gt;&amp;gt;" style="endArrow=open;endSize=12;dashed=1;html=1;rounded=0;sketch=1;exitX=0.5;exitY=0;exitDx=0;exitDy=0;entryX=0;entryY=1;entryDx=0;entryDy=0;" parent="1" source="dA5qExf6YDdf3Fpp9Gv9-7" target="dA5qExf6YDdf3Fpp9Gv9-9" edge="1">
          <mxGeometry width="160" relative="1" as="geometry">
            <mxPoint x="330" y="570" as="sourcePoint" />
            <mxPoint x="490" y="570" as="targetPoint" />
            <Array as="points">
              <mxPoint x="310" y="350" />
            </Array>
          </mxGeometry>
        </mxCell>
        <mxCell id="dA5qExf6YDdf3Fpp9Gv9-9" value="Ãªtre inscrit" style="ellipse;whiteSpace=wrap;html=1;sketch=1;" parent="1" vertex="1">
          <mxGeometry x="290" y="250" width="140" height="70" as="geometry" />
        </mxCell>
        <mxCell id="dA5qExf6YDdf3Fpp9Gv9-10" value="Faire un panier" style="ellipse;whiteSpace=wrap;html=1;sketch=1;" parent="1" vertex="1">
          <mxGeometry x="210" y="460" width="140" height="70" as="geometry" />
        </mxCell>
        <mxCell id="dA5qExf6YDdf3Fpp9Gv9-11" value="" style="endArrow=none;html=1;rounded=0;sketch=1;exitX=1;exitY=0.3333333333333333;exitDx=0;exitDy=0;exitPerimeter=0;entryX=0;entryY=0;entryDx=0;entryDy=0;" parent="1" source="dA5qExf6YDdf3Fpp9Gv9-3" target="dA5qExf6YDdf3Fpp9Gv9-10" edge="1">
          <mxGeometry relative="1" as="geometry">
            <mxPoint x="330" y="570" as="sourcePoint" />
            <mxPoint x="490" y="570" as="targetPoint" />
          </mxGeometry>
        </mxCell>
        <mxCell id="dA5qExf6YDdf3Fpp9Gv9-12" value="Admin" style="shape=umlActor;verticalLabelPosition=bottom;verticalAlign=top;html=1;sketch=1;" parent="1" vertex="1">
          <mxGeometry x="730" y="340" width="60" height="100" as="geometry" />
        </mxCell>
        <mxCell id="dA5qExf6YDdf3Fpp9Gv9-13" value="Modifier catalogue" style="ellipse;whiteSpace=wrap;html=1;sketch=1;" parent="1" vertex="1">
          <mxGeometry x="470" y="370" width="140" height="70" as="geometry" />
        </mxCell>
        <mxCell id="dA5qExf6YDdf3Fpp9Gv9-14" value="" style="endArrow=none;html=1;rounded=0;sketch=1;entryX=0;entryY=0.3333333333333333;entryDx=0;entryDy=0;entryPerimeter=0;exitX=1;exitY=0.5;exitDx=0;exitDy=0;" parent="1" source="dA5qExf6YDdf3Fpp9Gv9-13" target="dA5qExf6YDdf3Fpp9Gv9-12" edge="1">
          <mxGeometry relative="1" as="geometry">
            <mxPoint x="330" y="570" as="sourcePoint" />
            <mxPoint x="490" y="570" as="targetPoint" />
          </mxGeometry>
        </mxCell>
        <mxCell id="dA5qExf6YDdf3Fpp9Gv9-15" value="Visualiser commandes" style="ellipse;whiteSpace=wrap;html=1;sketch=1;" parent="1" vertex="1">
          <mxGeometry x="470" y="460" width="140" height="70" as="geometry" />
        </mxCell>
        <mxCell id="dA5qExf6YDdf3Fpp9Gv9-16" value="" style="endArrow=none;html=1;rounded=0;sketch=1;entryX=0;entryY=0.3333333333333333;entryDx=0;entryDy=0;entryPerimeter=0;exitX=1;exitY=0;exitDx=0;exitDy=0;" parent="1" source="dA5qExf6YDdf3Fpp9Gv9-15" target="dA5qExf6YDdf3Fpp9Gv9-12" edge="1">
          <mxGeometry relative="1" as="geometry">
            <mxPoint x="330" y="570" as="sourcePoint" />
            <mxPoint x="790" y="360" as="targetPoint" />
          </mxGeometry>
        </mxCell>
        <mxCell id="dA5qExf6YDdf3Fpp9Gv9-17" value="Consulter catalogue" style="ellipse;whiteSpace=wrap;html=1;sketch=1;" parent="1" vertex="1">
          <mxGeometry x="210" y="549.5" width="140" height="70" as="geometry" />
        </mxCell>
        <mxCell id="dA5qExf6YDdf3Fpp9Gv9-18" value="" style="endArrow=none;html=1;rounded=0;sketch=1;exitX=1;exitY=0.3333333333333333;exitDx=0;exitDy=0;exitPerimeter=0;entryX=0;entryY=0;entryDx=0;entryDy=0;" parent="1" source="dA5qExf6YDdf3Fpp9Gv9-3" target="dA5qExf6YDdf3Fpp9Gv9-17" edge="1">
          <mxGeometry relative="1" as="geometry">
            <mxPoint x="110" y="380" as="sourcePoint" />
            <mxPoint x="510" y="620" as="targetPoint" />
          </mxGeometry>
        </mxCell>
        <mxCell id="dA5qExf6YDdf3Fpp9Gv9-19" value="S&#39;inscrire" style="ellipse;whiteSpace=wrap;html=1;sketch=1;" parent="1" vertex="1">
          <mxGeometry x="210" y="640" width="140" height="70" as="geometry" />
        </mxCell>
        <mxCell id="dA5qExf6YDdf3Fpp9Gv9-20" value="" style="endArrow=none;html=1;rounded=0;sketch=1;exitX=1;exitY=0.3333333333333333;exitDx=0;exitDy=0;exitPerimeter=0;entryX=0;entryY=0.5;entryDx=0;entryDy=0;" parent="1" source="dA5qExf6YDdf3Fpp9Gv9-3" target="dA5qExf6YDdf3Fpp9Gv9-19" edge="1">
          <mxGeometry relative="1" as="geometry">
            <mxPoint x="400" y="530" as="sourcePoint" />
            <mxPoint x="560" y="530" as="targetPoint" />
          </mxGeometry>
        </mxCell>
      </root>
    </mxGraphModel>
  </diagram>
</mxfile>
